<?xml version="1.0" encoding="UTF-8"?>
<svg width="23px" height="23px" viewBox="0 0 23 23" version="1.1" xmlns="http://www.w3.org/2000/svg" xmlns:xlink="http://www.w3.org/1999/xlink">
    <title>Group 13@2x</title>
    <g id="页面-1" stroke="none" stroke-width="1" fill="none" fill-rule="evenodd">
        <g id="学员管理" transform="translate(-77.000000, -272.000000)">
            <g id="矩形" transform="translate(53.000000, 62.000000)">
                <g transform="translate(0.000000, 60.000000)" id="Group-13">
                    <g transform="translate(24.000000, 150.000000)">
                        <rect id="Rectangle-Copy-5" fill="#7E82E4" x="0" y="0" width="23" height="23" rx="3"></rect>
                        <g id="renliziyuangongsi" transform="translate(6.000000, 6.000000)" fill="#FFFFFF" fill-rule="nonzero">
                            <path d="M8,3.15119522 C8,2.3094945 7.68026458,1.51814472 7.09978933,0.922962449 C6.51926915,0.327764838 5.74741395,0 4.92644816,0 C4.10546741,0 3.33364215,0.327780195 2.75309202,0.922977807 C2.17255686,1.5181447 1.85285139,2.30947914 1.85285138,3.15119522 C1.85285138,3.80366914 2.04572906,4.42979289 2.41062105,4.96184837 C2.51297592,5.11107389 2.84105761,5.32614815 3.25091384,5.16606936 C3.66077007,5.00599058 3.69540149,4.5685527 3.59307657,4.41935788 C3.30488335,3.99912174 3.16294825,3.66697378 3.16294825,3.15119522 C3.16294825,2.14546439 3.81527219,1.36291851 4.92644816,1.36291851 C6.03762413,1.36291851 6.68879636,2.17116054 6.68879636,3.15119522 C6.68879636,4.13122991 5.87315801,5.36433461 4.92644816,5.48925781 C4.26755899,5.5762016 3.62226973,5.77481881 3.01748631,6.0370921 C2.43346144,6.29033632 1.9090612,6.65282013 1.45876865,7.11447026 C1.00850604,7.57612039 0.628531986,8.07114059 0.381496391,8.66988535 C0.125684096,9.28998971 0,9.77779265 0,10.4564171 C0,10.6388261 0.314401725,11 0.694158873,11 C1.07391602,11 1.34082302,10.6388107 1.34082302,10.4564171 C1.34082302,8.72418492 2.75403996,7.13030044 4.92644816,6.875 C6.06975943,6.74063857 6.896992,6.02634991 7.28036142,5.48925781 C7.66373084,4.95216571 8,3.99289595 8,3.15119522 Z" id="Path"></path>
                            <path d="M5,8.5 C5,8.75271565 5.32356447,9 5.54029498,9 L10.4040891,9 C10.6208196,9 11,8.79181122 11,8.5 C11,8.20818878 10.6208196,8 10.4040891,8 L5.54029498,8 C5.32356445,8 5,8.24728435 5,8.5 Z" id="Path"></path>
                            <path d="M5,10.5 C5,10.7527157 5.32356447,11 5.54029498,11 L10.4040891,11 C10.6208196,11 11,10.7918112 11,10.5 C11,10.2081888 10.6208196,10 10.4040891,10 L5.54029498,10 C5.32356445,10 5,10.2472843 5,10.5 Z" id="Path-Copy"></path>
                        </g>
                    </g>
                </g>
            </g>
        </g>
    </g>
</svg>