<?xml version="1.0" encoding="UTF-8"?>
<svg width="23px" height="23px" viewBox="0 0 23 23" version="1.1" xmlns="http://www.w3.org/2000/svg" xmlns:xlink="http://www.w3.org/1999/xlink">
    <title>Group 6@2x</title>
    <g id="页面-1" stroke="none" stroke-width="1" fill="none" fill-rule="evenodd">
        <g id="学员管理" transform="translate(-77.000000, -328.000000)">
            <g id="矩形" transform="translate(53.000000, 62.000000)">
                <g transform="translate(0.000000, 60.000000)" id="Group-6">
                    <g transform="translate(24.000000, 206.000000)">
                        <rect id="Rectangle-Copy-6" fill="#45C173" x="0" y="0" width="23" height="23" rx="3"></rect>
                        <g id="hetongguanli" transform="translate(7.000000, 6.000000)" fill="#FFFFFF" fill-rule="nonzero">
                            <path d="M4.11333839,9.65957003 L2.11660175,9.65957003 C1.69178275,9.65957003 1.34773919,9.30818114 1.34773919,8.87429225 L1.34773919,2.16007302 C1.34773919,1.72618413 1.69178275,1.37479524 2.11660175,1.37479524 L7.91476094,1.37209766 C8.33957994,1.37209766 8.68422184,1.72348655 8.68422184,2.15737544 L8.68422184,4.04545961 C9.29958588,4.125 9.76066536,4.54666667 10,4.73183334 L10,1.57055555 C9.99966979,0.703301406 9.3114002,0.00033725683 8.46227488,0 L1.53772512,0 C0.688366209,0.000337415202 0,0.703673874 0,1.57116666 L0,9.42944445 C0.000330361974,10.2969372 0.688964482,11 1.53832346,11 L5.19526408,11 C4.78929269,10.7384271 4.23705254,10.1261726 4.11333839,9.65957003 Z" id="Path"></path>
                            <path d="M8.00017539,5 C6.92833685,4.99993734 5.93789038,5.5717204 5.40195302,6.49994937 C4.86601566,7.42817833 4.86601566,8.57182167 5.40195302,9.50005063 C5.93789038,10.4282796 6.92833685,11.0000627 8.00017539,11 C9.65696114,10.9999031 11,9.65678576 11,8 C11,6.34321424 9.65696114,5.00009686 8.00017539,5 L8.00017539,5 Z M8.00015859,10 C7.28559525,10.0000483 6.62529085,9.61886096 6.26799524,9.00003899 C5.91069964,8.38121702 5.91069964,7.61878298 6.26799524,6.99996101 C6.62529085,6.38113904 7.28559525,5.99995175 8.00015859,6 C9.10467535,6.00007458 10.0000235,6.89548324 10.0000235,8 C10.0000235,9.10451676 9.10467535,9.99992542 8.00015859,10 L8.00015859,10 Z" id="Shape"></path>
                            <path d="M8.14794351,7.21781935 L7.72932875,6.40126025 L7.310714,7.21781935 L6.45865751,7.39366252 L7.05173627,8.07379157 L6.94399363,9 L7.72982298,8.60435286 L8.51466388,9 L8.40692124,8.07379157 L9,7.39366252 L8.14794351,7.21781935 L8.14794351,7.21781935 Z M7.03475703,3 L3.44814569,3 C3.33461752,2.99996163 3.09934663,3.12378248 3.04257713,3.32481146 C2.98580762,3.52584044 2.98580762,3.77352943 3.04257713,3.97455841 C3.09934663,4.17558739 3.33461752,4.29940825 3.44814569,4.29936987 L7.03475703,4.29936987 C7.21023703,4.29936987 7.44734936,4.00849601 7.44734936,3.64968495 C7.44707675,3.29025812 7.21004424,3 7.03475703,3 Z M4.90600687,6.24842467 C4.90600687,5.8896136 4.64236674,5.59873975 4.49194998,5.59873975 L3.44235547,5.59873975 C3.2919563,5.59879906 3,5.88965554 3,6.24842468 C3,6.60719382 3.2919563,6.8980503 3.44235547,6.89810962 L4.49194998,6.89810962 C4.64236674,6.89810962 4.90600687,6.60723575 4.90600687,6.24842467 Z" id="Shape"></path>
                        </g>
                    </g>
                </g>
            </g>
        </g>
    </g>
</svg>