<?xml version="1.0" encoding="UTF-8"?>
<svg width="23px" height="23px" viewBox="0 0 23 23" version="1.1" xmlns="http://www.w3.org/2000/svg" xmlns:xlink="http://www.w3.org/1999/xlink">
    <title>Group@2x</title>
    <g id="页面-1" stroke="none" stroke-width="1" fill="none" fill-rule="evenodd">
        <g id="学员管理" transform="translate(-77.000000, -159.000000)">
            <g id="矩形" transform="translate(53.000000, 62.000000)">
                <g transform="translate(0.000000, 60.000000)" id="Group">
                    <g transform="translate(24.000000, 37.000000)">
                        <rect id="Rectangle" fill="#2FB0A1" x="0" y="0" width="23" height="23" rx="3"></rect>
                        <g id="bangong" transform="translate(6.000000, 6.000000)" fill="#FFFFFF" fill-rule="nonzero">
                            <path d="M9.6402704,1.88194109 L8.17563979,1.88194109 L8.1716562,1.86866248 C7.89147755,0.784645099 6.76810719,0 5.5,0 C4.26376147,0 3.18952197,0.750845002 2.8283438,1.86866248 L2.82436021,1.88194109 L1.3597296,1.88194109 C0.60948817,1.88194109 0,2.43722839 0,3.11805891 L0,8.76388218 C0,9.44591985 0.610816031,10 1.3597296,10 L9.6402704,10 C10.3905118,10 11,9.4447127 11,8.76388218 L11,3.11805891 C11,2.43602125 10.3905118,1.88194109 9.6402704,1.88194109 Z M4.13085928,1.85002822 C4.32935132,1.47701606 4.86611852,1.23672139 5.49980201,1.23672139 C6.13348551,1.23672139 6.6711846,1.47760072 6.86874474,1.85002822 L6.87433607,1.86172139 L4.12433607,1.86172139 L4.13085928,1.85002822 Z M9.66184814,8.09510285 C9.66184814,8.31743487 9.36252585,8.53482617 9.05868549,8.53482617 L2.01501079,8.53482617 C1.71004091,8.53482617 1.41184814,8.31661141 1.41184814,8.09510285 L1.41184814,6.65982617 L1.43782706,6.67217795 C1.61967947,6.76111076 1.79249573,6.79816609 2.01501079,6.79816609 L9.05868549,6.79816609 C9.28120055,6.79816609 9.45401682,6.7602873 9.63586923,6.67217795 L9.66184814,6.65982617 L9.66184814,8.09510285 Z M9.625,5.22311867 C9.625,5.43760866 9.32567771,5.64733221 9.02183735,5.64733221 L1.97816265,5.64733221 C1.67319277,5.64733221 1.375,5.43681425 1.375,5.22311867 L1.375,3.57154574 C1.375,3.35705575 1.67432229,3.14733221 1.97816265,3.14733221 L9.02183735,3.14733221 C9.32680723,3.14733221 9.625,3.35785016 9.625,3.57154574 L9.625,5.22311867 Z" id="Shape"></path>
                        </g>
                    </g>
                </g>
            </g>
        </g>
    </g>
</svg>