<?xml version="1.0" encoding="UTF-8"?>
<svg width="18px" height="19px" viewBox="0 0 18 19" version="1.1" xmlns="http://www.w3.org/2000/svg" xmlns:xlink="http://www.w3.org/1999/xlink">
    <title>形状@2x</title>
    <g id="页面-1" stroke="none" stroke-width="1" fill="none" fill-rule="evenodd">
        <g id="学员管理" transform="translate(-1613.000000, -82.000000)" fill="#83848A" fill-rule="nonzero">
            <g id="矩形" transform="translate(53.000000, 62.000000)">
                <g id="top" transform="translate(-1.000000, 0.000000)">
                    <path d="M1570.48116,39 L1570.48116,39 C1565.78335,39 1561.97563,35.1462723 1561.97563,30.3903498 C1561.97563,26.790986 1564.15861,23.7088542 1567.25492,22.4230634 L1567.25492,22.4251894 C1567.34644,22.3920841 1567.44515,22.3743166 1567.54867,22.3743166 C1568.03324,22.3743166 1568.42885,22.7727948 1568.42885,23.2645145 C1568.42885,23.6516033 1568.18401,23.9826561 1567.84121,24.1047508 L1567.84121,24.1053582 C1565.4284,25.144378 1563.73539,27.5674414 1563.73539,30.3897423 C1563.73539,34.1613143 1566.7552,37.2180856 1570.48116,37.2180856 C1574.20728,37.2180856 1577.22708,34.1607069 1577.22708,30.3897423 C1577.22708,27.5674414 1575.53528,25.1448336 1573.12051,24.1053582 L1573.12051,24.1053582 C1572.77846,23.983871 1572.53422,23.6528182 1572.53422,23.2652738 C1572.53422,22.7734023 1572.92773,22.3749241 1573.41381,22.3749241 C1573.51612,22.3749241 1573.61409,22.3926916 1573.70695,22.4257969 L1573.70695,22.4236708 C1576.80582,23.7096135 1578.98625,26.7917453 1578.98625,30.3909572 C1578.987,35.1462723 1575.17852,39 1570.48116,39 M1570.48116,29.7968845 C1569.99599,29.7968845 1569.60173,29.3982544 1569.60173,28.9057754 L1569.60173,23.6364174 L1569.60173,21.8358244 L1569.60173,20.8903498 C1569.60113,20.3996931 1569.99599,20 1570.48116,20 C1570.96709,20 1571.36075,20.3992375 1571.36075,20.8903498 L1571.36075,23.5626139 L1571.36075,25.343769 L1571.36075,28.9053199 C1571.3609,29.397647 1570.96724,29.7968845 1570.48116,29.7968845" id="形状"></path>
                </g>
            </g>
        </g>
    </g>
</svg>