<?xml version="1.0" encoding="UTF-8"?>
<svg width="18px" height="19px" viewBox="0 0 18 19" version="1.1" xmlns="http://www.w3.org/2000/svg" xmlns:xlink="http://www.w3.org/1999/xlink">
    <title>编组@2x</title>
    <g id="页面-1" stroke="none" stroke-width="1" fill="none" fill-rule="evenodd">
        <g id="学员管理" transform="translate(-1562.000000, -82.000000)" fill="#83848A" fill-rule="nonzero">
            <g id="矩形" transform="translate(53.000000, 62.000000)">
                <g id="top" transform="translate(-1.000000, 0.000000)">
                    <g id="编组" transform="translate(1510.943750, 20.000000)">
                        <path d="M6.97898726,18.9999775 C6.73902725,19.0018359 6.51209239,18.8883957 6.36595815,18.6935135 C6.21982391,18.4986313 6.17140431,18.2448634 6.23516017,18.0079991 L6.47872102,17.1055017 C4.78761922,16.6829548 3.26386683,15.7393103 2.11318282,14.4019679 C0.750438027,12.8218655 -0.00112297818,10.7861969 1.25946003e-06,8.6782347 C1.25946003e-06,7.5081548 0.225779562,6.36974145 0.66960155,5.29941126 C1.09671483,4.26833851 1.71480475,3.33170968 2.48973562,2.54125267 C3.26528562,1.7488059 4.18353056,1.11781925 5.1936476,0.683216454 C6.24289226,0.229592768 7.35863291,5.05326761e-06 8.5053019,5.05326761e-06 C11.9192682,-0.00374761874 15.0045908,2.0829021 16.3410022,5.29941126 C16.7847343,6.36784172 17.012513,7.51722247 17.0106132,8.6782347 C17.0106132,10.7903952 16.2590421,12.8233892 14.8920085,14.4067179 C13.581186,15.9269702 11.7933407,16.9312635 9.83676787,17.2464179 L7.40270582,18.8717049 C7.27684898,18.9561685 7.12946869,19.000777 6.97898726,18.9999775 Z M8.5053019,1.56988052 C4.66554583,1.56988052 1.54178133,4.75791285 1.54178133,8.6758597 C1.54178133,12.208266 4.1242995,15.2340072 7.54884232,15.7129641 C7.7692069,15.7446307 7.96405557,15.8697136 8.08699582,16.0581298 C8.16431673,16.1768794 8.20761643,16.312254 8.21302889,16.4507953 L9.13624047,15.8356721 C9.23134518,15.7731306 9.34114087,15.7311724 9.45402939,15.7153391 C12.8863043,15.2395488 15.4719153,12.2138077 15.4719153,8.6758597 C15.4688225,4.75712118 12.345058,1.56988052 8.5053019,1.56988052 Z" id="形状"></path>
                        <path d="M9.00259556,13 C7.86092649,13 6.77776506,12.6167218 5.8724361,11.8918964 C4.9979836,11.1946311 4.35355382,10.2118849 4.03406406,9.08840517 C3.97502637,8.87071175 3.99946331,8.63646213 4.10186295,8.43849303 C4.20426259,8.24052393 4.37600023,8.09550946 4.5783392,8.03615869 C4.99981639,7.90120091 5.44369505,8.15545114 5.57758833,8.60852079 C6.02255442,10.1964715 7.43212697,11.3045379 9.00490507,11.3045379 C10.5776832,11.3045379 11.9872557,10.1964716 12.4322218,8.60852079 C12.5661151,8.15545114 13.0099937,7.90120091 13.4314709,8.03615869 C13.8579609,8.16862678 14.1012296,8.63934669 13.9757461,9.08840517 C13.6545857,10.210993 13.0104971,11.1932189 12.137374,11.8918964 C11.2294588,12.6158678 10.1303427,13.0043781 9.00259556,13 Z" id="路径"></path>
                    </g>
                </g>
            </g>
        </g>
    </g>
</svg>