<?xml version="1.0" encoding="UTF-8"?>
<svg width="17px" height="19px" viewBox="0 0 17 19" version="1.1" xmlns="http://www.w3.org/2000/svg" xmlns:xlink="http://www.w3.org/1999/xlink">
    <title>形状@2x</title>
    <g id="页面-1" stroke="none" stroke-width="1" fill="none" fill-rule="evenodd">
        <g id="学员管理" transform="translate(-1508.000000, -82.000000)" fill="#83848A" fill-rule="nonzero">
            <g id="矩形" transform="translate(53.000000, 62.000000)">
                <g id="top" transform="translate(-1.000000, 0.000000)">
                    <path d="M1464.84304,20 C1465.2576,20 1465.60215,20.3237277 1465.63324,20.7427497 L1465.63562,20.8029727 L1465.63522,21.7424506 C1468.85146,22.0355356 1471.34602,25.0655527 1471.34602,28.7202826 L1471.34602,31.1051112 C1471.34602,32.1393399 1471.68349,33.132617 1472.28555,33.8854038 L1472.60876,34.2897006 C1473.30944,35.1657437 1472.76244,36.5801799 1471.61338,36.5801799 L1468.11909,36.5801799 C1467.69636,38.0160001 1466.39358,39 1464.91533,39 C1463.43708,39 1462.1343,38.0160001 1461.71157,36.5801799 L1458.21648,36.5801799 C1457.06743,36.5801799 1456.52043,35.1653422 1457.22151,34.2897006 L1457.54472,33.8850024 C1458.14677,33.132617 1458.48384,32.1393399 1458.48384,31.1051112 L1458.48384,28.7202826 C1458.48384,25.1201549 1460.90474,22.126673 1464.05087,21.7577071 L1464.05087,20.8029727 C1464.05087,20.3595031 1464.40554,20 1464.84304,20 Z M1466.39175,36.5801799 L1463.43812,36.5801799 C1463.76171,37.088871 1464.318,37.3962085 1464.91513,37.3962085 C1465.51227,37.3962085 1466.06855,37.088871 1466.39215,36.5801799 L1466.39175,36.5801799 Z M1465.12387,23.3255111 L1464.84304,23.3255111 L1464.83433,23.3251096 L1464.70639,23.3251096 C1462.2047,23.3251096 1460.12999,25.6513213 1460.06978,28.5885951 L1460.0682,28.720684 L1460.0682,31.1051112 C1460.0682,32.502685 1459.60953,33.8536864 1458.77576,34.8959449 L1458.71278,34.9738332 L1471.11669,34.9738332 L1471.0549,34.8963464 C1470.25282,33.8938351 1469.79771,32.6062685 1469.76365,31.2661072 L1469.76167,31.1051112 L1469.76167,28.7202826 C1469.76167,25.7211799 1467.6628,23.3255111 1465.12347,23.3255111 L1465.12387,23.3255111 Z" id="形状"></path>
                </g>
            </g>
        </g>
    </g>
</svg>