<?xml version="1.0" encoding="UTF-8"?>
<svg width="23px" height="23px" viewBox="0 0 23 23" version="1.1" xmlns="http://www.w3.org/2000/svg" xmlns:xlink="http://www.w3.org/1999/xlink">
    <title>Group 9@2x</title>
    <g id="页面-1" stroke="none" stroke-width="1" fill="none" fill-rule="evenodd">
        <g id="学员管理" transform="translate(-77.000000, -384.000000)">
            <g id="矩形" transform="translate(53.000000, 62.000000)">
                <g transform="translate(0.000000, 60.000000)" id="Group-9">
                    <g transform="translate(24.000000, 262.000000)">
                        <rect id="Rectangle-Copy-8" fill="#14C0AF" x="0" y="0" width="23" height="23" rx="3"></rect>
                        <g id="ziyuan" transform="translate(6.000000, 6.000000)" fill="#FFFFFF" fill-rule="nonzero">
                            <path d="M4.91305985,0 L1.82506308,0 C0.823611506,0 0.0117746034,0.848180823 0.0117746034,1.89446489 L0.0117746034,10.2781617 C0.0117746034,10.5940851 0.424550413,10.8712251 0.726936763,10.8712251 C1.02799353,10.8678964 1.39415226,10.592696 1.39733832,10.2781617 L1.39733832,2.13070587 C1.39733832,1.71626868 1.71891008,1.38030096 2.11558895,1.38030096 L4.91305985,1.38030096 C5.30743766,1.3836784 5.62543642,1.71865891 5.62542318,2.13070587 L5.62542318,8.9145554 C5.62543642,9.32660237 5.30743766,9.66158289 4.91305985,9.66496033 L0.559293524,9.66496033 C0.25040424,9.66496033 0,9.95544417 0,10.2781617 C0,10.6008792 0.25040424,11 0.559293524,11 L5.18671153,11 C6.1881631,11 7,10.1518192 7,9.10553511 L7,1.89446489 C7,0.848180823 5.91451142,0 4.91305985,0 Z" id="Path"></path>
                            <path d="M2,4.97317522 C2,5.24404375 2.15294118,5.45950735 2.33529412,5.45950735 L4.34117647,5.45950735 C4.5235294,5.45950735 4.67647058,5.24404375 4.67647058,4.97317522 C4.67647058,4.70230669 4.5235294,4.49299919 4.34117647,4.49299919 L2.33529412,4.49299919 C2.14117647,4.49915529 2,4.71461889 2,4.97317522 L2,4.97317522 Z M6.7950468,2.04028789 C6.71844158,1.98620702 6.0010762,1.92579797 5.86093744,2.30037656 C5.69778734,2.72792682 5.84746338,3.19983798 5.99899423,3.29138608 L9.62069174,5.45071438 L9.62069174,9.61992996 L5.05279162,9.61992996 C4.77568168,9.61991036 4.54337734,9.98575507 4.54015513,10.2757414 C4.54015513,10.5681347 4.77340051,11 5.05279162,11 L10.5176471,11 C10.7758662,10.9909161 10.9849479,10.7774412 11,10.5075118 L11,4.67152618 L6.7950468,2.04028789 Z M2.33529412,7.47255301 L4.34117647,7.47255301 C4.5235294,7.47255301 4.67647058,7.25708941 4.67647058,6.99237698 C4.67647058,6.72766455 4.5235294,6.50604485 4.34117647,6.50604485 L2.33529412,6.50604485 C2.15294118,6.50604485 2,6.72150845 2,6.99237698 C2,7.26324551 2.14117647,7.47255301 2.33529412,7.47255301 Z M4.20575554,3.54495933 C4.43621979,3.51598102 4.60296208,3.30058004 4.58222612,3.0586272 C4.60296208,2.81667435 4.43621979,2.60127338 4.20575554,2.57229507 L3.07634377,2.57229507 C2.84351407,2.59820236 2.67343395,2.81453502 2.69399083,3.0586272 C2.67343395,3.30271938 2.84351407,3.51905204 3.07634377,3.54495933 L4.20575554,3.54495933 Z" id="Shape"></path>
                        </g>
                    </g>
                </g>
            </g>
        </g>
    </g>
</svg>