<?xml version="1.0" encoding="UTF-8"?>
<svg width="23px" height="23px" viewBox="0 0 23 23" version="1.1" xmlns="http://www.w3.org/2000/svg" xmlns:xlink="http://www.w3.org/1999/xlink">
    <title>Group 10@2x</title>
    <g id="页面-1" stroke="none" stroke-width="1" fill="none" fill-rule="evenodd">
        <g id="学员管理" transform="translate(-77.000000, -441.000000)">
            <g id="矩形" transform="translate(53.000000, 62.000000)">
                <g transform="translate(0.000000, 60.000000)" id="Group-10">
                    <g transform="translate(24.000000, 319.000000)">
                        <rect id="Rectangle-Copy-9" fill="#FEBA50" x="0" y="0" width="23" height="23" rx="3"></rect>
                        <g id="caiwufeiyong" transform="translate(6.000000, 6.000000)" fill="#FFFFFF">
                            <path d="M10.259126,2.24663909 L10.259126,1.87693899 C10.259126,0.779214064 9.37120823,0 8.27403599,0 L1.93419023,0 C0.837017995,0 0,0.779214064 0,1.87693899 L0,9.06618407 C0,10.163909 0.780462725,11 1.80976864,11 L9.18457584,11 C10.2138817,11 11,10.163909 11,9.06618407 L11,3.86763185 C11,3.19648397 10.7398458,2.60496381 10.259126,2.24663909 Z M9.62304022,8.47135417 C9.62304022,9.13112666 9.14232042,9.66576989 8.54849009,9.66576989 L2.44037195,9.66576989 C1.84654162,9.66576989 1.36582183,9.13112666 1.36582183,8.47135417 L1.36582183,2.57115146 C1.36582183,1.91137896 1.66272494,1.37673574 2.32442159,1.37673574 L7.87484662,1.37673574 C8.53088775,1.37673574 8.95630733,1.28321527 8.95630733,1.87693899 L8.63067595,1.90537746 C8.54018752,1.88831437 8.44404356,1.87693899 8.3478996,1.87693899 L2.89395438,1.87693899 C2.67338883,1.87693899 2.32442159,2.14117159 2.32442159,2.57115146 C2.32442159,3.00113132 2.67338883,3.39898087 2.89395438,3.39898087 L8.54849009,3.39898087 C9.14232042,3.39898087 9.62304022,3.93362409 9.62304022,4.59339659 L9.62304022,8.47135417 Z" id="Shape" fill-rule="nonzero"></path>
                            <rect id="矩形" x="3" y="5" width="5" height="1" rx="0.5"></rect>
                            <rect id="矩形备份-29" x="3" y="7" width="5" height="1" rx="0.5"></rect>
                        </g>
                    </g>
                </g>
            </g>
        </g>
    </g>
</svg>